<?xml version="1.0" encoding="utf-8"?>
<!-- Generator: Adobe Illustrator 16.0.4, SVG Export Plug-In . SVG Version: 6.00 Build 0)  -->
<!DOCTYPE svg PUBLIC "-//W3C//DTD SVG 1.1//EN" "http://www.w3.org/Graphics/SVG/1.1/DTD/svg11.dtd">
<svg version="1.1" id="Layer_1" xmlns="http://www.w3.org/2000/svg" xmlns:xlink="http://www.w3.org/1999/xlink" x="0px" y="0px"
	 width="300px" height="300px" viewBox="0 0 300 300" enable-background="new 0 0 300 300" xml:space="preserve">
<ellipse cx="663.667" cy="241.167" rx="53" ry="72.333"/>
<path fill="#F2EFE1" d="M284.186,146.771c0-68.421-60.195-124.086-134.185-124.086c-73.991,0-134.187,55.665-134.187,124.086
	c0,20.167,5.244,39.22,14.516,56.071c-0.215,1.562-0.33,3.182-0.33,4.842c0,11.996,5.908,21.877,13.522,23.248
	c7.525,26.732,26.337,45.822,48.479,46.385V132.718c-20.308,0.515-37.812,16.618-46.382,39.905
	c-2.486-8.242-3.834-16.905-3.834-25.853c0-54.101,48.545-98.115,108.215-98.115c59.669,0,108.214,44.014,108.214,98.115
	c0,9.489-1.5,18.666-4.285,27.353c-8.358-24.098-26.188-40.879-46.932-41.405v144.598c22.143-0.562,40.954-19.652,48.479-46.385
	C263.092,229.561,269,219.68,269,207.684c0-1.141-0.057-2.264-0.16-3.361C278.627,187.109,284.186,167.531,284.186,146.771z"/>
</svg>
